{"title":"Alif Laila {Aladin Ka Jadui Chirag} 1-6 vcd rip","uid":7298635,"size":1897088322,"categoryP":"video","categoryS":"tv_shows","magnet":"?xt=urn:btih:dc5fac6232c6862fa7b1fb1eb8beb575880e6715&amp;dn=Alif+Laila+%7BAladin+Ka+Jadui+Chirag%7D+1-6+vcd+rip&amp;tr=udp%3A%2F%2Ftracker.openbittorrent.com%3A80&amp;tr=udp%3A%2F%2Fopen.demonii.com%3A1337&amp;tr=udp%3A%2F%2Ftracker.coppersurfer.tk%3A6969&amp;tr=udp%3A%2F%2Fexodus.desync.com%3A6969","seeders":0,"leechers":1,"uploader":"djsunny1986","files":6,"time":1337967526,"description":"**************************Aladin Ka Jadui Chirag***********************************\n\n\nFormat                           : AVI\nFormat/Info                      : Audio Video Interleave\nFile size                        : 296 MiB\nDuration                         : 52mn 15s\nOverall bit rate                 : 791 Kbps\nWriting application              : MEncoder SVN-r30881(20100311-gcc4.3.3)\nWriting library                  : MPlayer\n\nVideo\nID                               : 0\nFormat                           : MPEG-4 Visual\nFormat profile                   : Advanced Simple@L5\nFormat settings, BVOP            : 2\nFormat settings, QPel            : No\nFormat settings, GMC             : No warppoints\nFormat settings, Matrix          : Default (H.263)\nCodec ID                         : XVID\nCodec ID/Hint                    : XviD\nDuration                         : 52mn 14s\nBit rate                         : 716 Kbps\nWidth                            : 352 pixels\nHeight                           : 288 pixels\nDisplay aspect ratio             : 4:3\nFrame rate                       : 20.000 fps\nStandard                         : PAL\nColor space                      : YUV\nChroma subsampling               : 4:2:0\nBit depth                        : 8 bits\nScan type                        : Progressive\nCompression mode                 : Lossy\nBits/(Pixel*Frame)               : 0.353\nStream size                      : 267 MiB (90%)\nWriting library                  : XviD 1.2.1 (UTC 2008-12-04)\n\nAudio\nID                               : 1\nFormat                           : MPEG Audio\nFormat version                   : Version 1\nFormat profile                   : Layer 3\nMode                             : Joint stereo\nMode extension                   : MS Stereo\nCodec ID                         : 55\nCodec ID/Hint                    : MP3\nDuration                         : 52mn 15s\nBit rate mode                    : Constant\nBit rate                         : 64.0 Kbps\nChannel(s)                       : 2 channels\nSampling rate                    : 44.1 KHz\nCompression mode                 : Lossy\nDelay relative to video          : 50ms\nStream size                      : 23.9 MiB (8%)\nAlignment                        : Aligned on interleaves\nInterleave, duration             : 26 ms (0.52 video frame)\nInterleave, preload duration     : 522 ms\n\n\n\nPlease note , this is not a whole series of alif laila, it is only a complete part of aladin k chirag {from alif laila} \n\nseed and enjoy.....","torrent":{"xt":"urn:btih:dc5fac6232c6862fa7b1fb1eb8beb575880e6715","amp;dn":"Alif+Laila+%7BAladin+Ka+Jadui+Chirag%7D+1-6+vcd+rip","amp;tr":["udp%3A%2F%2Ftracker.openbittorrent.com%3A80","udp%3A%2F%2Fopen.demonii.com%3A1337","udp%3A%2F%2Ftracker.coppersurfer.tk%3A6969","udp%3A%2F%2Fexodus.desync.com%3A6969"],"infoHash":"dc5fac6232c6862fa7b1fb1eb8beb575880e6715","infoHashBuffer":{"type":"Buffer","data":[220,95,172,98,50,198,134,47,167,177,251,30,184,190,181,117,136,14,103,21]},"announce":[],"urlList":[]}}